<svg width="60" height="61" viewBox="0 0 60 61" fill="none" xmlns="http://www.w3.org/2000/svg">
<g clip-path="url(#clip0_462_1394)">
<path d="M32.9219 38.5039C32.9219 38.5039 37.0078 44.1514 37.0166 44.165" stroke="#3B4BDC" stroke-miterlimit="10" stroke-linecap="round" stroke-linejoin="round"/>
<path d="M29.0752 37.0518H21.791" stroke="#3B4BDC" stroke-miterlimit="10" stroke-linecap="round" stroke-linejoin="round"/>
<path d="M13.2812 45.3682C13.3994 44.9346 13.5967 44.5127 13.8779 44.124L17.9443 38.5029" stroke="#3B4BDC" stroke-miterlimit="10" stroke-linecap="round" stroke-linejoin="round"/>
<path d="M24.4043 42.9102L18.4658 29.5957" stroke="#3B4BDC" stroke-miterlimit="10" stroke-linecap="round" stroke-linejoin="round"/>
<path d="M21.0059 45.3682L14.7178 31.2676" stroke="#3B4BDC" stroke-miterlimit="10" stroke-linecap="round" stroke-linejoin="round"/>
<path d="M23.5713 45.3682V44.3184C23.5713 43.6289 24.0117 43.0156 24.665 42.7949L26.2686 42.2539C26.6338 42.1309 26.9297 41.8613 27.0869 41.5098L32.4004 29.5957" stroke="#3B4BDC" stroke-miterlimit="10" stroke-linecap="round" stroke-linejoin="round"/>
<path d="M30.5898 45.4063V44.0147C30.5898 43.8291 30.6289 43.6455 30.7041 43.4756L36.1494 31.2676" stroke="#3B4BDC" stroke-miterlimit="10" stroke-linecap="round" stroke-linejoin="round"/>
<path d="M30.4277 17.9971L36.7637 21.166C38.543 22.0547 39.3076 24.1885 38.4961 26.0049L36.1494 31.2676L32.4004 29.5957L33.7549 26.5605" stroke="#3B4BDC" stroke-miterlimit="10" stroke-linecap="round" stroke-linejoin="round"/>
<path d="M17.1123 26.5605L18.4658 29.5957L14.7178 31.2676L12.3701 26.0049C11.5596 24.1885 12.3233 22.0547 14.1026 21.166L20.4785 17.9785" stroke="#3B4BDC" stroke-miterlimit="10" stroke-linecap="round" stroke-linejoin="round"/>
<path d="M34.4111 47.7452H36.2139C36.3623 47.7452 36.4727 47.6065 36.4355 47.4639C36.3564 47.1504 36.3135 46.8243 36.3135 46.4913C36.3135 45.129 36.9746 43.8506 38.0879 43.0625L40.251 41.5323C40.7373 41.1875 41.4102 41.2979 41.7617 41.7784L42.1279 42.2793C42.3555 42.5899 42.7178 42.7745 43.1035 42.7745H47.7715" stroke="#3B4BDC" stroke-miterlimit="10" stroke-linecap="round" stroke-linejoin="round"/>
<path d="M39.4463 52.3242L38.9932 52.1768C38.5254 52.0244 38.0361 51.9463 37.543 51.9463H35.3066" stroke="#3B4BDC" stroke-miterlimit="10" stroke-linecap="round" stroke-linejoin="round"/>
<path d="M43.835 47.8488C43.835 47.462 44.3965 46.0071 46.0469 45.9787C47.1973 45.9592 46.5459 43.5442 48.0547 42.5481C50.377 41.0158 52.6748 43.092 52.3525 47.2961" stroke="#3B4BDC" stroke-miterlimit="10" stroke-linecap="round" stroke-linejoin="round"/>
<path d="M41.8633 49.332C39.4971 49.9814 39.4453 51.6816 39.4453 52.3027C39.4453 52.9414 40.7803 54.7676 45.291 54.7676C48.915 54.7676 50.9541 52.5947 51.6348 50.6582" stroke="#3B4BDC" stroke-miterlimit="10" stroke-linecap="round" stroke-linejoin="round"/>
<path d="M41.8103 48.817C41.7463 49.7888 42.6473 50.8418 43.8434 50.8917C45.4174 50.9574 46.5683 48.9265 43.8349 47.8486" stroke="#3B4BDC" stroke-miterlimit="10" stroke-linecap="round" stroke-linejoin="round"/>
<path d="M7.61719 54.7676H32.125C33.7646 54.7676 35.1188 53.5354 35.3066 51.9463C35.3214 51.8213 35.3291 51.6934 35.3291 51.5635V50.752C35.3291 49.6387 34.9906 48.6039 34.4111 47.7451C33.4435 46.3111 31.8037 45.3682 29.9443 45.3682H7.61719" stroke="#3B4BDC" stroke-miterlimit="10" stroke-linecap="round" stroke-linejoin="round"/>
<path d="M7.61719 54.7676H20.2839" stroke="#3B4BDC" stroke-miterlimit="10" stroke-linecap="round" stroke-linejoin="round"/>
<path d="M20.2842 50.7402H7.61719" stroke="#3B4BDC" stroke-miterlimit="10" stroke-linecap="round" stroke-linejoin="round"/>
<path d="M20.2837 54.7675V49.7871C20.2837 49.4397 20.565 49.1582 20.9124 49.1582H27.2594C28.8083 49.1582 30.0641 50.4139 30.0641 51.9629C30.0641 53.5118 28.8084 54.7676 27.2594 54.7676" stroke="#3B4BDC" stroke-miterlimit="10" stroke-linecap="round" stroke-linejoin="round"/>
<path d="M20.4775 17.8643C18.6992 15.9141 16.5097 8.63966 20.2822 8.66212C21.4453 6.2754 25.5732 5.58985 28.7012 6.86036" stroke="#3B4BDC" stroke-miterlimit="10" stroke-linecap="round" stroke-linejoin="round"/>
<path d="M31.415 8.87695C32.8564 10.8125 33.0322 13.8418 30.3867 18.0635" stroke="#3B4BDC" stroke-miterlimit="10" stroke-linecap="round" stroke-linejoin="round"/>
<path d="M30.3894 13.9892V17.9214C30.3894 20.069 28.6483 21.81 26.5008 21.81H24.3661C22.2185 21.81 20.4775 20.0689 20.4775 17.9214V17.2649C20.4775 17.0149 20.7708 16.8817 20.9606 17.0445C21.6654 17.6485 22.3087 18.0086 22.4664 18.0399C22.7031 18.0863 25.8352 17.8441 28.2894 13.9937C28.518 13.635 28.9106 13.4141 29.336 13.4141H29.8144C30.1318 13.4141 30.3894 13.6716 30.3894 13.9892Z" stroke="#3B4BDC" stroke-miterlimit="10" stroke-linecap="round" stroke-linejoin="round"/>
</g>
<defs>
<clipPath id="clip0_462_1394">
<rect width="50" height="50" fill="white" transform="translate(5 5.5)"/>
</clipPath>
</defs>
</svg>
