<svg width="36" height="36" viewBox="0 0 36 36" fill="none" xmlns="http://www.w3.org/2000/svg">
<path d="M28.4364 4H7.56364C6.6185 4 5.71208 4.37545 5.04376 5.04376C4.37545 5.71208 4 6.6185 4 7.56364V28.4364C4 29.3815 4.37545 30.2879 5.04376 30.9562C5.71208 31.6245 6.6185 32 7.56364 32H17.7881V20.3497H15.458V15.6896H17.7688V13.5836C17.7688 11.6776 18.6768 8.6998 22.6726 8.6998L26.2722 8.71425V12.7069H23.6581C23.2331 12.7069 22.6283 12.9185 22.6283 13.8263V15.6899H26.3316L25.9065 20.35H22.4482V32H28.4364C28.9043 32 29.3677 31.9078 29.8001 31.7287C30.2325 31.5496 30.6253 31.2871 30.9562 30.9562C31.2871 30.6253 31.5496 30.2325 31.7287 29.8001C31.9078 29.3677 32 28.9043 32 28.4364V7.56364C32 7.09565 31.9078 6.63225 31.7287 6.19989C31.5496 5.76753 31.2871 5.37468 30.9562 5.04376C30.6253 4.71285 30.2325 4.45036 29.8001 4.27127C29.3677 4.09218 28.9043 4 28.4364 4Z" fill="#1D1D1B"/>
</svg>
