<svg width="297" height="55" viewBox="0 0 297 55" fill="none" xmlns="http://www.w3.org/2000/svg">
<rect width="297" height="55" rx="6" fill="#3B4BDC"/>
<path d="M41.08 33V23.25H43.66V30.84H47.35V33H41.08ZM52.8435 33.18C50.1435 33.18 48.3135 31.29 48.3135 28.08C48.3135 24.87 50.1435 23.07 52.8435 23.07C55.5435 23.07 57.3735 24.885 57.3735 28.08C57.3735 31.29 55.5435 33.18 52.8435 33.18ZM52.8435 30.96C54.0135 30.96 54.7335 29.85 54.7335 28.08C54.7335 26.31 54.0135 25.29 52.8435 25.29C51.6735 25.29 50.9535 26.31 50.9535 28.08C50.9535 29.85 51.6735 30.96 52.8435 30.96ZM59.4193 33V23.25H63.1093C65.2093 23.25 67.0093 23.97 67.0093 26.4C67.0093 27.795 66.3793 28.71 65.4343 29.22L67.5493 33H64.6693L62.9893 29.73H61.9993V33H59.4193ZM61.9993 27.69H62.9293C63.9493 27.69 64.4893 27.24 64.4893 26.4C64.4893 25.56 63.9493 25.29 62.9293 25.29H61.9993V27.69ZM69.1675 33V23.25H75.4675V25.41H71.7475V26.94H74.9275V29.1H71.7475V30.84H75.6175V33H69.1675ZM77.8025 33V23.25H80.5625L82.0325 27.24C82.2125 27.78 82.3625 28.38 82.5425 28.95H82.6025C82.7825 28.38 82.9325 27.78 83.1125 27.24L84.5225 23.25H87.2825V33H84.9425V30.12C84.9425 29.13 85.1525 27.615 85.2725 26.64H85.2125L84.4025 28.98L83.2025 32.205H81.8225L80.6225 28.98L79.8425 26.64H79.7825C79.9025 27.615 80.1125 29.13 80.1125 30.12V33H77.8025ZM93.0509 33V23.25H95.6309V33H93.0509ZM98.097 33V23.25H101.667C103.797 23.25 105.627 24.03 105.627 26.49C105.627 28.875 103.767 29.91 101.727 29.91H100.677V33H98.097ZM100.677 27.87H101.607C102.627 27.87 103.107 27.36 103.107 26.49C103.107 25.62 102.537 25.29 101.547 25.29H100.677V27.87ZM110.466 33.18C109.236 33.18 107.826 32.73 106.776 31.785L108.246 30.015C108.936 30.57 109.806 30.96 110.526 30.96C111.306 30.96 111.636 30.705 111.636 30.27C111.636 29.805 111.141 29.655 110.316 29.325L109.101 28.815C108.051 28.395 107.136 27.51 107.136 26.1C107.136 24.435 108.636 23.07 110.766 23.07C111.876 23.07 113.106 23.49 114.006 24.375L112.716 25.995C112.056 25.53 111.486 25.29 110.766 25.29C110.136 25.29 109.746 25.515 109.746 25.95C109.746 26.415 110.301 26.58 111.186 26.925L112.371 27.39C113.586 27.87 114.276 28.71 114.276 30.06C114.276 31.71 112.896 33.18 110.466 33.18ZM120.133 33.18C117.403 33.18 116.083 31.62 116.083 28.29V23.25H118.663V28.59C118.663 30.33 119.113 30.96 120.133 30.96C121.153 30.96 121.633 30.33 121.633 28.59V23.25H124.123V28.29C124.123 31.62 122.863 33.18 120.133 33.18ZM126.521 33V23.25H129.281L130.751 27.24C130.931 27.78 131.081 28.38 131.261 28.95H131.321C131.501 28.38 131.651 27.78 131.831 27.24L133.241 23.25H136.001V33H133.661V30.12C133.661 29.13 133.871 27.615 133.991 26.64H133.931L133.121 28.98L131.921 32.205H130.541L129.341 28.98L128.561 26.64H128.501C128.621 27.615 128.831 29.13 128.831 30.12V33H126.521ZM141.77 33V23.25H144.65C147.62 23.25 149.66 24.63 149.66 28.08C149.66 31.53 147.62 33 144.8 33H141.77ZM144.35 30.93H144.5C145.91 30.93 147.02 30.36 147.02 28.08C147.02 25.8 145.91 25.32 144.5 25.32H144.35V30.93ZM155.804 33.18C153.104 33.18 151.274 31.29 151.274 28.08C151.274 24.87 153.104 23.07 155.804 23.07C158.504 23.07 160.334 24.885 160.334 28.08C160.334 31.29 158.504 33.18 155.804 33.18ZM155.804 30.96C156.974 30.96 157.694 29.85 157.694 28.08C157.694 26.31 156.974 25.29 155.804 25.29C154.634 25.29 153.914 26.31 153.914 28.08C153.914 29.85 154.634 30.96 155.804 30.96ZM162.38 33V23.25H164.96V30.84H168.65V33H162.38ZM174.143 33.18C171.443 33.18 169.613 31.29 169.613 28.08C169.613 24.87 171.443 23.07 174.143 23.07C176.843 23.07 178.673 24.885 178.673 28.08C178.673 31.29 176.843 33.18 174.143 33.18ZM174.143 30.96C175.313 30.96 176.033 29.85 176.033 28.08C176.033 26.31 175.313 25.29 174.143 25.29C172.973 25.29 172.253 26.31 172.253 28.08C172.253 29.85 172.973 30.96 174.143 30.96ZM180.719 33V23.25H184.409C186.509 23.25 188.309 23.97 188.309 26.4C188.309 27.795 187.679 28.71 186.734 29.22L188.849 33H185.969L184.289 29.73H183.299V33H180.719ZM183.299 27.69H184.229C185.249 27.69 185.789 27.24 185.789 26.4C185.789 25.56 185.249 25.29 184.229 25.29H183.299V27.69ZM196.86 33.18C195.63 33.18 194.22 32.73 193.17 31.785L194.64 30.015C195.33 30.57 196.2 30.96 196.92 30.96C197.7 30.96 198.03 30.705 198.03 30.27C198.03 29.805 197.535 29.655 196.71 29.325L195.495 28.815C194.445 28.395 193.53 27.51 193.53 26.1C193.53 24.435 195.03 23.07 197.16 23.07C198.27 23.07 199.5 23.49 200.4 24.375L199.11 25.995C198.45 25.53 197.88 25.29 197.16 25.29C196.53 25.29 196.14 25.515 196.14 25.95C196.14 26.415 196.695 26.58 197.58 26.925L198.765 27.39C199.98 27.87 200.67 28.71 200.67 30.06C200.67 31.71 199.29 33.18 196.86 33.18ZM202.537 33V23.25H205.117V33H202.537ZM209.443 33V25.41H206.863V23.25H214.603V25.41H212.023V33H209.443ZM222.173 28.26L222.008 28.935H223.808L223.643 28.26C223.403 27.33 223.163 26.145 222.923 25.17H222.863C222.653 26.16 222.413 27.33 222.173 28.26ZM218.423 33L221.393 23.25H224.513L227.483 33H224.753L224.273 30.93H221.543L221.063 33H218.423ZM228.712 33V23.25H231.472L232.942 27.24C233.122 27.78 233.272 28.38 233.452 28.95H233.512C233.692 28.38 233.842 27.78 234.022 27.24L235.432 23.25H238.192V33H235.852V30.12C235.852 29.13 236.062 27.615 236.182 26.64H236.122L235.312 28.98L234.112 32.205H232.732L231.532 28.98L230.752 26.64H230.692C230.812 27.615 231.022 29.13 231.022 30.12V33H228.712ZM240.658 33V23.25H246.958V25.41H243.238V26.94H246.418V29.1H243.238V30.84H247.108V33H240.658ZM251.153 33V25.41H248.573V23.25H256.313V25.41H253.733V33H251.153Z" fill="white"/>
</svg>
