<svg width="60" height="61" viewBox="0 0 60 61" fill="none" xmlns="http://www.w3.org/2000/svg">
<path d="M36.569 49.5299C39.8046 49.5299 42.4276 46.9069 42.4276 43.6713C42.4276 40.4357 39.8046 37.8127 36.569 37.8127C33.3334 37.8127 30.7104 40.4357 30.7104 43.6713C30.7104 46.9069 33.3334 49.5299 36.569 49.5299Z" stroke="#3B4BDC" stroke-miterlimit="10"/>
<path d="M36.569 45.8683C37.7824 45.8683 38.766 44.8847 38.766 43.6713C38.766 42.458 37.7824 41.4744 36.569 41.4744C35.3557 41.4744 34.3721 42.458 34.3721 43.6713C34.3721 44.8847 35.3557 45.8683 36.569 45.8683Z" stroke="#3B4BDC" stroke-miterlimit="10"/>
<path d="M12.9816 47.3469C12.1709 46.3418 11.6855 45.0633 11.6855 43.6716C11.6855 40.436 14.3085 37.813 17.5441 37.813C20.7797 37.813 23.4027 40.436 23.4027 43.6716C23.4027 46.9072 20.7797 49.5302 17.5441 49.5302C16.2615 49.5302 15.075 49.1179 14.1102 48.4188" stroke="#3B4BDC" stroke-miterlimit="10"/>
<path d="M17.5441 45.8683C18.7575 45.8683 19.7411 44.8847 19.7411 43.6713C19.7411 42.458 18.7575 41.4744 17.5441 41.4744C16.3308 41.4744 15.3472 42.458 15.3472 43.6713C15.3472 44.8847 16.3308 45.8683 17.5441 45.8683Z" stroke="#3B4BDC" stroke-miterlimit="10"/>
<path d="M32.7729 26.8416L36.569 37.8129" stroke="#3B4BDC" stroke-miterlimit="10"/>
<path d="M12.418 18.8088H29.9937L32.2763 25.406" stroke="#3B4BDC" stroke-miterlimit="10"/>
<path d="M17.5443 37.818H7.29492V37.2438L9.48877 32.0029H21.9539L27.7931 37.8225H36.5692" stroke="#3B4BDC" stroke-miterlimit="10"/>
<path d="M7.32381 37.8127H5.73242V43.6713L11.7073 43.6943" stroke="#3B4BDC" stroke-miterlimit="10"/>
<path d="M19.0089 18.8088H16.0796V32.0032H19.0089V18.8088Z" stroke="#3B4BDC" stroke-miterlimit="10"/>
<path d="M23.4028 43.6963H30.7287" stroke="#3B4BDC" stroke-miterlimit="10"/>
<path d="M22.6704 46.625H31.4583" stroke="#3B4BDC" stroke-miterlimit="10"/>
<path d="M21.9536 32.0032V26.1165H22.6776C23.8909 26.1165 24.8746 27.1001 24.8746 28.3134V34.8616" stroke="#3B4BDC" stroke-miterlimit="10"/>
<path d="M45.357 43.6956V29.0457H42.4277V46.6249H54.268V43.6956H45.357Z" stroke="#3B4BDC" stroke-miterlimit="10"/>
<path d="M42.4277 32.0029H45.3569" stroke="#3B4BDC" stroke-miterlimit="10"/>
<path d="M42.4277 32.003V11.47" stroke="#3B4BDC" stroke-miterlimit="10"/>
<path d="M40.2461 11.47H44.64" stroke="#3B4BDC" stroke-miterlimit="10"/>
<path d="M11.7075 34.1646V35.6292" stroke="#3B4BDC" stroke-miterlimit="10"/>
<path d="M14.6489 34.1646V35.6292" stroke="#3B4BDC" stroke-miterlimit="10"/>
</svg>
