<svg width="17" height="18" viewBox="0 0 17 18" fill="none" xmlns="http://www.w3.org/2000/svg">
<path d="M8.50033 0.665009C13.1037 0.665009 16.8353 4.39668 16.8353 9.00001C16.8353 13.6025 13.1037 17.3333 8.50033 17.3333C3.89699 17.3342 0.166992 13.6025 0.166992 9.00001C0.166159 4.39668 3.89699 0.665009 8.50033 0.665009ZM8.50033 1.91501C7.5635 1.90485 6.63396 2.08059 5.76551 2.43207C4.89706 2.78354 4.10693 3.30377 3.44088 3.96265C2.77482 4.62152 2.24605 5.40595 1.88518 6.27054C1.5243 7.13513 1.33849 8.06271 1.33849 8.99959C1.33849 9.93647 1.5243 10.8641 1.88518 11.7286C2.24605 12.5932 2.77482 13.3777 3.44088 14.0365C4.10693 14.6954 4.89706 15.2156 5.76551 15.5671C6.63396 15.9186 7.5635 16.0943 8.50033 16.0842C10.366 16.0639 12.1483 15.3086 13.4604 13.9822C14.7725 12.6558 15.5085 10.8653 15.5085 8.99959C15.5085 7.13384 14.7725 5.3434 13.4604 4.01698C12.1483 2.69056 10.366 1.93524 8.50033 1.91501ZM8.49699 7.74834C8.64817 7.74815 8.79429 7.80275 8.90829 7.90204C9.02229 8.00133 9.09643 8.13857 9.11699 8.28834L9.12283 8.37334L9.12616 12.9583C9.12778 13.1178 9.06837 13.2719 8.9601 13.389C8.85183 13.5061 8.70288 13.5774 8.54376 13.5882C8.38465 13.5991 8.22739 13.5487 8.10421 13.4474C7.98102 13.3461 7.90123 13.2016 7.88116 13.0433L7.87616 12.9592L7.87283 8.37418C7.87283 8.20842 7.93867 8.04944 8.05588 7.93223C8.17309 7.81502 8.33207 7.74918 8.49783 7.74918L8.49699 7.74834ZM8.50116 4.83418C8.61265 4.83065 8.7237 4.84956 8.82774 4.88979C8.93178 4.93001 9.02667 4.99074 9.10678 5.06835C9.18689 5.14597 9.25058 5.23889 9.29408 5.3416C9.33758 5.44431 9.35999 5.55472 9.35999 5.66626C9.35999 5.7778 9.33758 5.88821 9.29408 5.99092C9.25058 6.09363 9.18689 6.18655 9.10678 6.26416C9.02667 6.34178 8.93178 6.4025 8.82774 6.44273C8.7237 6.48296 8.61265 6.50187 8.50116 6.49834C8.28504 6.4915 8.08005 6.40084 7.92959 6.24554C7.77913 6.09024 7.69499 5.88249 7.69499 5.66626C7.69499 5.45003 7.77913 5.24228 7.92959 5.08698C8.08005 4.93168 8.28504 4.84102 8.50116 4.83418Z" fill="white"/>
</svg>
