<svg width="462" height="111" viewBox="0 0 462 111" fill="none" xmlns="http://www.w3.org/2000/svg">
<g filter="url(#filter0_d_417_5168)">
<rect x="4" width="454" height="103" rx="6" fill="#1D1D1B"/>
<path d="M159.322 71.9996V34.9496H169.126V63.7916H183.148V71.9996H159.322Z" fill="white"/>
<path d="M205.163 72.6836C194.903 72.6836 187.949 65.5016 187.949 53.3036C187.949 41.1056 194.903 34.2656 205.163 34.2656C215.423 34.2656 222.377 41.1626 222.377 53.3036C222.377 65.5016 215.423 72.6836 205.163 72.6836ZM205.163 64.2476C209.609 64.2476 212.345 60.0296 212.345 53.3036C212.345 46.5776 209.609 42.7016 205.163 42.7016C200.717 42.7016 197.981 46.5776 197.981 53.3036C197.981 60.0296 200.717 64.2476 205.163 64.2476Z" fill="white"/>
<path d="M248.391 72.6836C238.017 72.6836 229.695 66.4136 229.695 53.7596C229.695 41.3336 238.245 34.2656 248.163 34.2656C253.635 34.2656 257.625 36.5456 260.247 39.1676L255.117 45.4376C253.293 43.8416 251.469 42.7016 248.505 42.7016C243.489 42.7016 239.727 46.6916 239.727 53.4176C239.727 60.3716 242.805 64.2476 249.417 64.2476C250.443 64.2476 251.583 64.0196 252.267 63.5636V58.4336H246.795V50.4536H260.931V68.1236C258.309 70.6316 253.635 72.6836 248.391 72.6836Z" fill="white"/>
<path d="M286.039 72.6836C275.779 72.6836 268.825 65.5016 268.825 53.3036C268.825 41.1056 275.779 34.2656 286.039 34.2656C296.299 34.2656 303.253 41.1626 303.253 53.3036C303.253 65.5016 296.299 72.6836 286.039 72.6836ZM286.039 64.2476C290.485 64.2476 293.221 60.0296 293.221 53.3036C293.221 46.5776 290.485 42.7016 286.039 42.7016C281.593 42.7016 278.857 46.5776 278.857 53.3036C278.857 60.0296 281.593 64.2476 286.039 64.2476Z" fill="white"/>
</g>
<defs>
<filter id="filter0_d_417_5168" x="0" y="0" width="462" height="111" filterUnits="userSpaceOnUse" color-interpolation-filters="sRGB">
<feFlood flood-opacity="0" result="BackgroundImageFix"/>
<feColorMatrix in="SourceAlpha" type="matrix" values="0 0 0 0 0 0 0 0 0 0 0 0 0 0 0 0 0 0 127 0" result="hardAlpha"/>
<feOffset dy="4"/>
<feGaussianBlur stdDeviation="2"/>
<feComposite in2="hardAlpha" operator="out"/>
<feColorMatrix type="matrix" values="0 0 0 0 0 0 0 0 0 0 0 0 0 0 0 0 0 0 0.25 0"/>
<feBlend mode="normal" in2="BackgroundImageFix" result="effect1_dropShadow_417_5168"/>
<feBlend mode="normal" in="SourceGraphic" in2="effect1_dropShadow_417_5168" result="shape"/>
</filter>
</defs>
</svg>
