<svg width="178" height="61" viewBox="0 0 178 61" fill="none" xmlns="http://www.w3.org/2000/svg">
<rect width="178" height="61" rx="3" fill="white"/>
<path d="M47.0034 42.6408V20.6985H52.7476V37.7797H60.9631V42.6408H47.0034Z" fill="#3B4BDC"/>
<path d="M73.862 43.0459C67.8506 43.0459 63.7763 38.7924 63.7763 31.5684C63.7763 24.3443 67.8506 20.2935 73.862 20.2935C79.8734 20.2935 83.9477 24.3781 83.9477 31.5684C83.9477 38.7924 79.8734 43.0459 73.862 43.0459ZM73.862 38.0498C76.4669 38.0498 78.07 35.5517 78.07 31.5684C78.07 27.585 76.4669 25.2895 73.862 25.2895C71.2571 25.2895 69.6541 27.585 69.6541 31.5684C69.6541 35.5517 71.2571 38.0498 73.862 38.0498Z" fill="#3B4BDC"/>
<path d="M99.1893 43.0459C93.1112 43.0459 88.2353 39.3326 88.2353 31.8384C88.2353 24.4794 93.2447 20.2935 99.0557 20.2935C102.262 20.2935 104.6 21.6437 106.136 23.1966L103.13 26.9099C102.061 25.9647 100.993 25.2895 99.2561 25.2895C96.3172 25.2895 94.1131 27.6525 94.1131 31.6359C94.1131 35.7543 95.9165 38.0498 99.7905 38.0498C100.392 38.0498 101.06 37.9148 101.46 37.6447V34.6065H98.2542V29.8805H106.537V40.3453C105 41.8306 102.262 43.0459 99.1893 43.0459Z" fill="#3B4BDC"/>
<path d="M121.247 43.0459C115.236 43.0459 111.161 38.7924 111.161 31.5684C111.161 24.3443 115.236 20.2935 121.247 20.2935C127.259 20.2935 131.333 24.3781 131.333 31.5684C131.333 38.7924 127.259 43.0459 121.247 43.0459ZM121.247 38.0498C123.852 38.0498 125.455 35.5517 125.455 31.5684C125.455 27.585 123.852 25.2895 121.247 25.2895C118.642 25.2895 117.039 27.585 117.039 31.5684C117.039 35.5517 118.642 38.0498 121.247 38.0498Z" fill="#3B4BDC"/>
</svg>
