<svg width="60" height="61" viewBox="0 0 60 61" fill="none" xmlns="http://www.w3.org/2000/svg">
<g clip-path="url(#clip0_462_1389)">
<mask id="mask0_462_1389" style="mask-type:luminance" maskUnits="userSpaceOnUse" x="5" y="5" width="50" height="51">
<path d="M5 5.5H55V55.5H5V5.5Z" fill="white"/>
</mask>
<g mask="url(#mask0_462_1389)">
<path d="M39.693 31.3198H41.783C42.2627 31.3198 42.6517 30.931 42.6517 30.4512V28.6401C42.6517 28.2751 42.8788 27.9462 43.2229 27.8245C43.5402 27.7124 43.8498 27.5841 44.1507 27.4405C44.4803 27.2833 44.8734 27.3548 45.1316 27.6131L46.4122 28.8936C46.7514 29.2328 47.3014 29.2328 47.6406 28.8936L50.1385 26.3957C50.4777 26.0565 50.4777 25.5065 50.1385 25.1673L48.858 23.8868C48.5998 23.6285 48.5282 23.2354 48.6854 22.9059C48.829 22.6049 48.9573 22.2953 49.0694 21.978C49.1911 21.6339 49.52 21.4067 49.8851 21.4067H51.6962C52.1759 21.4067 52.5647 21.0179 52.5647 20.5381V17.0056C52.5647 16.5259 52.1759 16.1369 51.6962 16.1369H49.8851C49.52 16.1369 49.1911 15.9098 49.0694 15.5657C48.9573 15.2484 48.829 14.9389 48.6854 14.6379C48.5282 14.3083 48.5998 13.915 48.858 13.6569L50.1385 12.3765C50.4777 12.0372 50.4777 11.4872 50.1385 11.148L47.6406 8.6501C47.3014 8.31094 46.7514 8.31094 46.4122 8.6501L45.1316 9.93067C44.8734 10.1888 44.4803 10.2605 44.1507 10.1031C43.8498 9.95957 43.5402 9.83135 43.2229 9.71914C42.8788 9.59746 42.6517 9.26856 42.6517 8.90352V7.09248C42.6517 6.6127 42.2627 6.22383 41.783 6.22383H38.2505C37.7707 6.22383 37.3818 6.6127 37.3818 7.09248V8.90352C37.3818 9.26856 37.1547 9.59746 36.8105 9.71914C36.4934 9.83135 36.1837 9.95957 35.8828 10.1031C35.5532 10.2605 35.1601 10.1888 34.9018 9.93067L33.6213 8.6501C33.2821 8.31094 32.7321 8.31094 32.3929 8.6501L29.895 11.148C29.5558 11.4872 29.5558 12.0372 29.895 12.3765L31.1755 13.6569C31.4337 13.915 31.5053 14.3083 31.348 14.6379C31.2045 14.9389 31.0763 15.2484 30.9641 15.5657C30.8424 15.9098 30.5134 16.1369 30.1484 16.1369H28.3374C27.8576 16.1369 27.4688 16.5259 27.4688 17.0056V19.0973" stroke="#3B4BDC" stroke-miterlimit="10" stroke-linecap="round" stroke-linejoin="round"/>
<path d="M33.8783 19.3178C33.8625 19.1379 33.8545 18.9559 33.8545 18.7719C33.8545 15.3691 36.613 12.6105 40.0158 12.6105C43.4187 12.6105 46.1771 15.3691 46.1771 18.7719C46.1771 22.1748 43.4187 24.9333 40.0158 24.9333C39.9073 24.9333 39.7995 24.9305 39.6925 24.925" stroke="#3B4BDC" stroke-miterlimit="10" stroke-linecap="round" stroke-linejoin="round"/>
<path d="M15.9744 54.7761H12.6271C8.80742 54.7761 5.71094 51.6795 5.71094 47.8599C5.71094 44.0401 8.80742 40.9436 12.6271 40.9436H47.3724C51.1921 40.9436 54.2886 44.0401 54.2886 47.8599C54.2886 51.6795 51.1921 54.7761 47.3724 54.7761H19.3738" stroke="#3B4BDC" stroke-miterlimit="10" stroke-linecap="round" stroke-linejoin="round"/>
<path d="M17.5137 47.8599C17.5137 49.3861 16.2764 50.6235 14.75 50.6235C13.2237 50.6235 11.9863 49.3861 11.9863 47.8599C11.9863 46.3335 13.2237 45.0962 14.75 45.0962C16.2764 45.0962 17.5137 46.3335 17.5137 47.8599Z" stroke="#3B4BDC" stroke-miterlimit="10" stroke-linecap="round" stroke-linejoin="round"/>
<path d="M27.6807 47.8599C27.6807 49.3861 26.4434 50.6235 24.917 50.6235C23.3907 50.6235 22.1533 49.3861 22.1533 47.8599C22.1533 46.3335 23.3907 45.0962 24.917 45.0962C26.4434 45.0962 27.6807 46.3335 27.6807 47.8599Z" stroke="#3B4BDC" stroke-miterlimit="10" stroke-linecap="round" stroke-linejoin="round"/>
<path d="M37.8467 47.8599C37.8467 49.3861 36.6094 50.6235 35.083 50.6235C33.5567 50.6235 32.3193 49.3861 32.3193 47.8599C32.3193 46.3335 33.5567 45.0962 35.083 45.0962C36.6094 45.0962 37.8467 46.3335 37.8467 47.8599Z" stroke="#3B4BDC" stroke-miterlimit="10" stroke-linecap="round" stroke-linejoin="round"/>
<path d="M48.0127 47.8599C48.0127 49.3861 46.7754 50.6235 45.249 50.6235C43.7227 50.6235 42.4854 49.3861 42.4854 47.8599C42.4854 46.3335 43.7227 45.0962 45.249 45.0962C46.7754 45.0962 48.0127 46.3335 48.0127 47.8599Z" stroke="#3B4BDC" stroke-miterlimit="10" stroke-linecap="round" stroke-linejoin="round"/>
<path d="M39.6924 37.3073V40.9436H18.0664V20.083C18.0664 19.6603 18.4091 19.3176 18.8317 19.3176H38.927C39.3497 19.3176 39.6924 19.6603 39.6924 20.083V33.9194" stroke="#3B4BDC" stroke-miterlimit="10" stroke-linecap="round" stroke-linejoin="round"/>
<path d="M28.8796 19.3177H26.2979V25.0606C26.2979 25.4006 26.6574 25.6203 26.9601 25.4652L28.6721 24.5876C28.8023 24.5208 28.9568 24.5208 29.087 24.5876L30.7991 25.4652C31.1018 25.6203 31.4613 25.4006 31.4613 25.0606V19.3177H28.8796Z" stroke="#3B4BDC" stroke-miterlimit="10" stroke-linecap="round" stroke-linejoin="round"/>
<path d="M32.5227 37.3074H25.2371C24.995 37.3074 24.7988 37.1112 24.7988 36.8692V33.7429C24.7988 33.5008 24.995 33.3046 25.2371 33.3046H32.5227C32.7647 33.3046 32.9609 33.5008 32.9609 33.7429V36.8692C32.9609 37.1112 32.7647 37.3074 32.5227 37.3074Z" stroke="#3B4BDC" stroke-miterlimit="10" stroke-linecap="round" stroke-linejoin="round"/>
</g>
</g>
<defs>
<clipPath id="clip0_462_1389">
<rect width="50" height="50" fill="white" transform="translate(5 5.5)"/>
</clipPath>
</defs>
</svg>
