<svg width="60" height="61" viewBox="0 0 60 61" fill="none" xmlns="http://www.w3.org/2000/svg">
<path d="M48.5537 18.4591V16.7075C48.5537 16.1682 48.9909 15.731 49.5303 15.731H53.2906C53.83 15.731 54.2672 16.1682 54.2672 16.7075V26.2025C54.2672 26.7419 53.83 27.1791 53.2906 27.1791H49.5303C48.9909 27.1791 48.5537 26.7419 48.5537 26.2025V24.4431" stroke="#3B4BDC" stroke-miterlimit="10" stroke-linecap="round" stroke-linejoin="round"/>
<path d="M11.4459 18.4591V16.7075C11.4459 16.1682 11.0087 15.731 10.4693 15.731H6.70898C6.16963 15.731 5.73242 16.1682 5.73242 16.7075V26.2025C5.73242 26.7419 6.16963 27.1791 6.70898 27.1791H10.4693C11.0087 27.1791 11.4459 26.7419 11.4459 26.2025V24.4431" stroke="#3B4BDC" stroke-miterlimit="10" stroke-linecap="round" stroke-linejoin="round"/>
<path d="M32.7366 49.9668V51.4196C32.7366 52.0055 32.2617 52.4805 31.6758 52.4805H28.3245C27.7387 52.4805 27.2637 52.0056 27.2637 51.4196V49.9668" stroke="#3B4BDC" stroke-miterlimit="10" stroke-linecap="round" stroke-linejoin="round"/>
<path d="M27.2637 31.4163V29.991C27.2637 29.4052 27.7386 28.9302 28.3245 28.9302H31.6758C32.2616 28.9302 32.7366 29.4051 32.7366 29.991V31.541" stroke="#3B4BDC" stroke-miterlimit="10" stroke-linecap="round" stroke-linejoin="round"/>
<path d="M32.7361 49.7179H27.2633C26.6168 49.7179 26.0928 49.1939 26.0928 48.5474V32.8631C26.0928 32.2166 26.6168 31.6926 27.2633 31.6926H32.7361C33.3826 31.6926 33.9066 32.2166 33.9066 32.8631V48.5473C33.9066 49.1938 33.3826 49.7179 32.7361 49.7179Z" stroke="#3B4BDC" stroke-miterlimit="10" stroke-linecap="round" stroke-linejoin="round"/>
<path d="M26.5879 46.3389H33.4111" stroke="#3B4BDC" stroke-miterlimit="10" stroke-linecap="round" stroke-linejoin="round"/>
<path d="M31.6761 18.4592V15.3959L32.8916 12.9858L31.6559 8.51953H28.3451L27.1094 12.9858L28.3249 15.3959V18.4592" stroke="#3B4BDC" stroke-miterlimit="10" stroke-linecap="round" stroke-linejoin="round"/>
<path d="M31.6758 28.6737V24.4434" stroke="#3B4BDC" stroke-miterlimit="10" stroke-linecap="round" stroke-linejoin="round"/>
<path d="M28.3242 24.4434V28.6737" stroke="#3B4BDC" stroke-miterlimit="10" stroke-linecap="round" stroke-linejoin="round"/>
<path d="M45.7308 49.9668V51.4196C45.7308 52.0055 45.2559 52.4805 44.6699 52.4805H41.3187C40.7328 52.4805 40.2578 52.0056 40.2578 51.4196V49.9668" stroke="#3B4BDC" stroke-miterlimit="10" stroke-linecap="round" stroke-linejoin="round"/>
<path d="M40.2578 31.541V29.991C40.2578 29.4052 40.7327 28.9302 41.3187 28.9302H44.6699C45.2558 28.9302 45.7308 29.4051 45.7308 29.991V31.4163" stroke="#3B4BDC" stroke-miterlimit="10" stroke-linecap="round" stroke-linejoin="round"/>
<path d="M46.9014 38.0215V48.5479C46.9014 49.1943 46.377 49.7178 45.7305 49.7178H40.2578C39.6113 49.7178 39.0869 49.1943 39.0869 48.5479V32.8633C39.0869 32.2168 39.6113 31.6924 40.2578 31.6924H45.7305C46.377 31.6924 46.9014 32.2168 46.9014 32.8633V34.6035" stroke="#3B4BDC" stroke-miterlimit="10" stroke-linecap="round" stroke-linejoin="round"/>
<path d="M39.583 46.3389H46.4062" stroke="#3B4BDC" stroke-miterlimit="10" stroke-linecap="round" stroke-linejoin="round"/>
<path d="M44.6704 18.4592V15.3959L46.1829 12.9858L44.183 8.51953H41.8066L39.8066 12.9858L41.3191 15.3959V18.4592" stroke="#3B4BDC" stroke-miterlimit="10" stroke-linecap="round" stroke-linejoin="round"/>
<path d="M44.6699 28.802V24.4434" stroke="#3B4BDC" stroke-miterlimit="10" stroke-linecap="round" stroke-linejoin="round"/>
<path d="M41.3184 24.4434V28.802" stroke="#3B4BDC" stroke-miterlimit="10" stroke-linecap="round" stroke-linejoin="round"/>
<path d="M42.9941 8.51953V12.5139" stroke="#3B4BDC" stroke-miterlimit="10" stroke-linecap="round" stroke-linejoin="round"/>
<path d="M19.7424 49.9668V51.4196C19.7424 52.0055 19.2675 52.4805 18.6815 52.4805H15.3304C14.7445 52.4805 14.2695 52.0056 14.2695 51.4196V49.9668" stroke="#3B4BDC" stroke-miterlimit="10" stroke-linecap="round" stroke-linejoin="round"/>
<path d="M14.2695 31.541V29.991C14.2695 29.4052 14.7444 28.9302 15.3304 28.9302H18.6816C19.2675 28.9302 19.7425 29.4051 19.7425 29.991V31.541" stroke="#3B4BDC" stroke-miterlimit="10" stroke-linecap="round" stroke-linejoin="round"/>
<path d="M13.0986 41.54V48.5479C13.0986 49.1943 13.623 49.7178 14.2695 49.7178H19.7422C20.3887 49.7178 20.9131 49.1943 20.9131 48.5479V32.8633C20.9131 32.2168 20.3887 31.6924 19.7422 31.6924H14.2695C13.623 31.6924 13.0986 32.2168 13.0986 32.8633V38.1221" stroke="#3B4BDC" stroke-miterlimit="10" stroke-linecap="round" stroke-linejoin="round"/>
<path d="M13.5938 46.3389H20.4169" stroke="#3B4BDC" stroke-miterlimit="10" stroke-linecap="round" stroke-linejoin="round"/>
<path d="M18.6813 18.4592V11.3116L17.0057 8.51953L15.3301 11.3116V18.4592" stroke="#3B4BDC" stroke-miterlimit="10" stroke-linecap="round" stroke-linejoin="round"/>
<path d="M18.6816 28.6737V24.4434" stroke="#3B4BDC" stroke-miterlimit="10" stroke-linecap="round" stroke-linejoin="round"/>
<path d="M15.3301 24.4434V28.6737" stroke="#3B4BDC" stroke-miterlimit="10" stroke-linecap="round" stroke-linejoin="round"/>
<path d="M24.8916 18.7246H50.4346C50.9736 18.7246 51.4111 19.1621 51.4111 19.7012V23.209C51.4111 23.748 50.9736 24.1855 50.4346 24.1855H37.832" stroke="#3B4BDC" stroke-miterlimit="10" stroke-linecap="round" stroke-linejoin="round"/>
<path d="M21.4736 18.7246H9.56543C9.02637 18.7246 8.58887 19.1621 8.58887 19.7012V23.209C8.58887 23.748 9.02637 24.1855 9.56543 24.1855H34.4141" stroke="#3B4BDC" stroke-miterlimit="10" stroke-linecap="round" stroke-linejoin="round"/>
</svg>
